<?xml version="1.0" encoding="UTF-8"?>
<svg version="1.1" xmlns="http://www.w3.org/2000/svg" width="126" height="127">
<path d="M0 0 C15.0241465 10.56482978 25.11694699 24.8912231 28.81640625 42.98046875 C29.22128712 46.78451157 29.29428774 50.53214889 29.25390625 54.35546875 C29.24705811 55.35989014 29.24020996 56.36431152 29.2331543 57.39916992 C29.06405141 65.24060396 27.99568614 71.74630402 24.81640625 78.98046875 C24.45417969 79.85445313 24.09195313 80.7284375 23.71875 81.62890625 C16.70911934 97.07385517 3.27939528 109.15889347 -12.47241211 115.17553711 C-28.3100405 120.66636184 -45.92518412 119.7448591 -61.18359375 112.98046875 C-77.88641707 104.4274347 -89.52097305 90.68105499 -95.30859375 72.9765625 C-99.84567864 57.44109771 -98.67077713 39.5260382 -91.20849609 25.09472656 C-82.48980445 9.33667986 -69.7610671 -1.50157918 -52.62109375 -7.328125 C-34.96255978 -12.33703608 -15.46670111 -9.65896514 0 0 Z " fill="#1E912B" transform="translate(97.18359375,9.01953125)"/>
<path d="M0 0 C8.25 0 16.5 0 25 0 C25 7.26 25 14.52 25 22 C29.95 21.34 34.9 20.68 40 20 C40 18.02 40 16.04 40 14 C41.65 14 43.3 14 45 14 C45.625 16.375 45.625 16.375 46 19 C45.34 19.66 44.68 20.32 44 21 C46.31 21.33 48.62 21.66 51 22 C51 15.07 51 8.14 51 1 C52.65 1 54.3 1 56 1 C56 9.58 56 18.16 56 27 C58.31 27.33 60.62 27.66 63 28 C65.5 29.5 65.5 29.5 67 32 C67.21943446 35.91442767 67.08039585 39.56370904 64.671875 42.765625 C61.96558879 44.76372417 59.24160485 44.18348707 56 44 C56 43.34 56 42.68 56 42 C57.32 42 58.64 42 60 42 C60 38.04 60 34.08 60 30 C59.01 29.67 58.02 29.34 57 29 C56.67 31.97 56.34 34.94 56 38 C54.35 38 52.7 38 51 38 C50.34 35.03 49.68 32.06 49 29 C48.34 29 47.68 29 47 29 C47 32.96 47 36.92 47 41 C48.32 41.66 49.64 42.32 51 43 C50 44 50 44 47.125 44.1875 C44 44 44 44 41 42 C39.76345431 38.29036293 39.4491844 34.85570922 40 31 C41.625 28.5 41.625 28.5 44 27 C47.25 26.75 47.25 26.75 50 27 C50 26.01 50 25.02 50 24 C49.27530518 24.16749756 48.55061035 24.33499512 47.80395508 24.50756836 C45.11077023 24.98054649 42.85686512 25.03685023 40.13671875 24.87890625 C39.25048828 24.83056641 38.36425781 24.78222656 37.45117188 24.73242188 C36.53916016 24.67634766 35.62714844 24.62027344 34.6875 24.5625 C33.29047852 24.48418945 33.29047852 24.48418945 31.86523438 24.40429688 C29.57643647 24.2751852 27.28813814 24.14024585 25 24 C25 24.99 25 25.98 25 27 C26.0725 26.7525 27.145 26.505 28.25 26.25 C32 26 32 26 34.4375 27.375 C36.6547853 31.10003931 36.8668959 34.75923896 36 39 C34.703125 40.765625 34.703125 40.765625 33 42 C29.3125 42.1875 29.3125 42.1875 26 42 C26 41.34 26 40.68 26 40 C27.485 39.505 27.485 39.505 29 39 C29 36.03 29 33.06 29 30 C27.35 30 25.7 30 24 30 C24.03311373 32.42031245 24.10032789 34.83153287 24.1875 37.25 C24.19330078 37.93191406 24.19910156 38.61382812 24.20507812 39.31640625 C24.37251268 43.14879728 24.63668666 44.66393516 27.5 47.3125 C28.325 47.869375 29.15 48.42625 30 49 C30.8125 51.75 30.8125 51.75 31 54 C30.34 54 29.68 54 29 54 C28.5359375 52.7934375 28.5359375 52.7934375 28.0625 51.5625 C27.23664655 49.10919595 27.23664655 49.10919595 26 48 C24.33382885 47.95936168 22.66611905 47.957279 21 48 C21 49.32 21 50.64 21 52 C23.475 51.505 23.475 51.505 26 51 C25.67 51.99 25.34 52.98 25 54 C18.61292897 55.32561852 18.61292897 55.32561852 16 53.9375 C13.71542121 49.51112858 16.64009681 43.53301063 18 39 C17.01 39.495 17.01 39.495 16 40 C13.0625 40.375 13.0625 40.375 10 40 C7.49665055 37.58009553 7.04119694 35.65182721 6.82421875 32.21875 C6.81359919 29.47182468 6.87026776 26.74359669 7 24 C6.01 24 5.02 24 4 24 C4 23.34 4 22.68 4 22 C8.95 22 13.9 22 19 22 C19 15.07 19 8.14 19 1 C17.35 1.33 15.7 1.66 14 2 C14.66 2.66 15.32 3.32 16 4 C16.55980872 8.87833311 16.74549961 10.91563693 13.9375 15 C10.3131706 17.46762853 8.302317 17.56823055 4 17 C2 15 2 15 1.75 12.5 C2 10 2 10 4 8 C6.125 8.375 6.125 8.375 8 9 C8 10.32 8 11.64 8 13 C7.01 13 6.02 13 5 13 C5 13.99 5 14.98 5 16 C6.32 15.34 7.64 14.68 9 14 C9 10.04 9 6.08 9 2 C6.03 1.67 3.06 1.34 0 1 C0 0.67 0 0.34 0 0 Z " fill="#F0F6F1" transform="translate(21,41)"/>
<path d="M0 0 C4.40114397 0.50298788 6.71195019 2.08772731 10 5 C10.33 3.35 10.66 1.7 11 0 C13.475 0.495 13.475 0.495 16 1 C15.67 2.32 15.34 3.64 15 5 C13.68 5 12.36 5 11 5 C11 5.99 11 6.98 11 8 C23.54 8 36.08 8 49 8 C49 8.66 49 9.32 49 10 C46.03 10 43.06 10 40 10 C40 16.93 40 23.86 40 31 C37.36 31 34.72 31 32 31 C32.66 30.01 33.32 29.02 34 28 C34 26.68 34 25.36 34 24 C32.35 23.67 30.7 23.34 29 23 C29 24.98 29 26.96 29 29 C23.66451337 31.84559287 20.89443818 31 14 31 C14 23.74 14 16.48 14 9 C5.75 9 -2.5 9 -11 9 C-11 8.67 -11 8.34 -11 8 C-5.39 8 0.22 8 6 8 C6 7.34 6 6.68 6 6 C5.195625 5.7525 4.39125 5.505 3.5625 5.25 C1 4 1 4 0.1875 1.875 C0.125625 1.25625 0.06375 0.6375 0 0 Z " fill="#D9EADB" transform="translate(32,32)"/>
<path d="M0 0 C0.33 0 0.66 0 1 0 C1 6.93 1 13.86 1 21 C5.95 20.34 10.9 19.68 16 19 C16 17.02 16 15.04 16 13 C17.65 13 19.3 13 21 13 C21.625 15.375 21.625 15.375 22 18 C21.34 18.66 20.68 19.32 20 20 C22.31 20.33 24.62 20.66 27 21 C27 14.07 27 7.14 27 0 C28.65 0 30.3 0 32 0 C32 8.58 32 17.16 32 26 C34.31 26.33 36.62 26.66 39 27 C41.5 28.5 41.5 28.5 43 31 C43.21943446 34.91442767 43.08039585 38.56370904 40.671875 41.765625 C37.96558879 43.76372417 35.24160485 43.18348707 32 43 C32 42.34 32 41.68 32 41 C33.32 41 34.64 41 36 41 C36 37.04 36 33.08 36 29 C35.01 28.67 34.02 28.34 33 28 C32.67 30.97 32.34 33.94 32 37 C30.35 37 28.7 37 27 37 C26.34 34.03 25.68 31.06 25 28 C24.34 28 23.68 28 23 28 C23 31.96 23 35.92 23 40 C24.32 40.66 25.64 41.32 27 42 C26 43 26 43 23.125 43.1875 C20 43 20 43 17 41 C15.76345431 37.29036293 15.4491844 33.85570922 16 30 C17.625 27.5 17.625 27.5 20 26 C23.25 25.75 23.25 25.75 26 26 C26 25.01 26 24.02 26 23 C25.27530518 23.16749756 24.55061035 23.33499512 23.80395508 23.50756836 C21.11077023 23.98054649 18.85686512 24.03685023 16.13671875 23.87890625 C15.25048828 23.83056641 14.36425781 23.78222656 13.45117188 23.73242188 C12.53916016 23.67634766 11.62714844 23.62027344 10.6875 23.5625 C9.75615234 23.51029297 8.82480469 23.45808594 7.86523438 23.40429688 C5.57643647 23.2751852 3.28813814 23.14024585 1 23 C1 23.99 1 24.98 1 26 C2.0725 25.7525 3.145 25.505 4.25 25.25 C8 25 8 25 10.4375 26.375 C12.6547853 30.10003931 12.8668959 33.75923896 12 38 C10.703125 39.765625 10.703125 39.765625 9 41 C5.3125 41.1875 5.3125 41.1875 2 41 C2 40.34 2 39.68 2 39 C3.485 38.505 3.485 38.505 5 38 C5 35.03 5 32.06 5 29 C3.35 28.67 1.7 28.34 0 28 C0 18.76 0 9.52 0 0 Z " fill="#84BB8A" transform="translate(45,42)"/>
<path d="M0 0 C1.65 0 3.3 0 5 0 C5 8.58 5 17.16 5 26 C7.31 26.33 9.62 26.66 12 27 C14.5 28.5 14.5 28.5 16 31 C16.21943446 34.91442767 16.08039585 38.56370904 13.671875 41.765625 C10.96558879 43.76372417 8.24160485 43.18348707 5 43 C5 42.34 5 41.68 5 41 C6.32 41 7.64 41 9 41 C9 37.04 9 33.08 9 29 C8.01 28.67 7.02 28.34 6 28 C5.67 30.97 5.34 33.94 5 37 C3.35 37 1.7 37 0 37 C-1.1212955 28.90188461 -0.94210264 21.02554871 -0.5625 12.875 C-0.51029297 11.63234375 -0.45808594 10.3896875 -0.40429688 9.109375 C-0.27581738 6.07258699 -0.14091542 3.03623202 0 0 Z " fill="#FAFBFA" transform="translate(72,42)"/>
<path d="M0 0 C2.64 0 5.28 0 8 0 C8 6.93 8 13.86 8 21 C5.36 21 2.72 21 0 21 C0.66 20.01 1.32 19.02 2 18 C2 16.68 2 15.36 2 14 C0.35 13.67 -1.3 13.34 -3 13 C-3 14.98 -3 16.96 -3 19 C-4.32 18.34 -5.64 17.68 -7 17 C-7.05395478 15.37536158 -7.09277195 13.75021459 -7.125 12.125 C-7.14820313 11.22007813 -7.17140625 10.31515625 -7.1953125 9.3828125 C-7 7 -7 7 -5 5 C-2.375 4.875 -2.375 4.875 0 5 C0 3.35 0 1.7 0 0 Z " fill="#2B9537" transform="translate(64,42)"/>
<path d="M0 0 C4.95 0 9.9 0 15 0 C15 7.92 15 15.84 15 24 C14.34 23.67 13.68 23.34 13 23 C13.33 21.02 13.66 19.04 14 17 C13.34 17.33 12.68 17.66 12 18 C9.0625 18.375 9.0625 18.375 6 18 C3.49665055 15.58009553 3.04119694 13.65182721 2.82421875 10.21875 C2.81359919 7.47182468 2.87026776 4.74359669 3 2 C2.01 2 1.02 2 0 2 C0 1.34 0 0.68 0 0 Z " fill="#50A759" transform="translate(25,63)"/>
<path d="M0 0 C8.25 0 16.5 0 25 0 C25 0.33 25 0.66 25 1 C21.37 1.33 17.74 1.66 14 2 C14.66 2.66 15.32 3.32 16 4 C16.55980872 8.87833311 16.74549961 10.91563693 13.9375 15 C10.3131706 17.46762853 8.302317 17.56823055 4 17 C2 15 2 15 1.75 12.5 C2 10 2 10 4 8 C6.125 8.375 6.125 8.375 8 9 C8 10.32 8 11.64 8 13 C7.01 13 6.02 13 5 13 C5 13.99 5 14.98 5 16 C6.32 15.34 7.64 14.68 9 14 C9 10.04 9 6.08 9 2 C6.03 1.67 3.06 1.34 0 1 C0 0.67 0 0.34 0 0 Z " fill="#E7F1E8" transform="translate(21,41)"/>
<path d="M0 0 C3.96 0 7.92 0 12 0 C12 1.32 12 2.64 12 4 C10.5459375 4.8971875 10.5459375 4.8971875 9.0625 5.8125 C5.72295743 7.75489866 5.72295743 7.75489866 4.8125 11.375 C5.06545972 16.26555455 6.59746237 17.59746237 10 21 C6.7 21 3.4 21 0 21 C0 14.07 0 7.14 0 0 Z " fill="#20922C" transform="translate(46,42)"/>
<path d="M0 0 C4.40114397 0.50298788 6.71195019 2.08772731 10 5 C10.33 3.35 10.66 1.7 11 0 C13.475 0.495 13.475 0.495 16 1 C15.67 2.32 15.34 3.64 15 5 C13.68 5 12.36 5 11 5 C11 5.99 11 6.98 11 8 C23.54 8 36.08 8 49 8 C49 8.33 49 8.66 49 9 C29.2 9 9.4 9 -11 9 C-11 8.67 -11 8.34 -11 8 C-5.39 8 0.22 8 6 8 C6 7.34 6 6.68 6 6 C5.195625 5.7525 4.39125 5.505 3.5625 5.25 C1 4 1 4 0.1875 1.875 C0.125625 1.25625 0.06375 0.6375 0 0 Z " fill="#3E9B48" transform="translate(32,32)"/>
<path d="M0 0 C1.98 0 3.96 0 6 0 C6.33 4.95 6.66 9.9 7 15 C7.99 15.33 8.98 15.66 10 16 C9 17 9 17 6.125 17.375 C3 17 3 17 1.31640625 14.87109375 C-0.20673129 11.54911723 -0.30728143 9.32087015 -0.1875 5.6875 C-0.16042969 4.61886719 -0.13335938 3.55023438 -0.10546875 2.44921875 C-0.07066406 1.64097656 -0.03585938 0.83273438 0 0 Z " fill="#F1F6F1" transform="translate(28,64)"/>
<path d="M0 0 C2.6875 0.3125 2.6875 0.3125 5 1.75 C7.40632764 5.40405308 7.56008175 9.04392443 6.6875 13.3125 C5.390625 15.078125 5.390625 15.078125 3.6875 16.3125 C-0 16.5 -0 16.5 -3.3125 16.3125 C-3.3125 15.6525 -3.3125 14.9925 -3.3125 14.3125 C-2.3225 13.9825 -1.3325 13.6525 -0.3125 13.3125 C-0.23118537 11.87594146 -0.17316441 10.4380517 -0.125 9 C-0.09019531 8.19949219 -0.05539063 7.39898437 -0.01953125 6.57421875 C-0.37448392 3.83398416 -1.20616282 3.02078921 -3.3125 1.3125 C-2.3125 0.3125 -2.3125 0.3125 0 0 Z " fill="#E5F0E6" transform="translate(50.3125,66.6875)"/>
<path d="M0 0 C3.63994786 0.27999599 6.34456313 0.60673788 9.5 2.5 C11.50805638 5.84676064 11.11836136 8.09331115 10.65234375 11.87890625 C9.88047502 14.38863512 9.10679444 15.44451625 7 17 C3.3125 17.1875 3.3125 17.1875 0 17 C0 16.34 0 15.68 0 15 C1.32 15 2.64 15 4 15 C4.10807131 13.06372231 4.1856225 11.12572244 4.25 9.1875 C4.31960937 7.56908203 4.31960937 7.56908203 4.390625 5.91796875 C4.29716453 2.87923182 4.29716453 2.87923182 1.984375 1.11328125 C1.32953125 0.74589844 0.6746875 0.37851563 0 0 Z " fill="#E5EEE6" transform="translate(77,68)"/>
<path d="M0 0 C0 3.96 0 7.92 0 12 C1.32 12.66 2.64 13.32 4 14 C3 15 3 15 0.125 15.1875 C-3 15 -3 15 -6 13 C-7.25131795 9.24604616 -7.45720519 5.92706604 -7 2 C-4.81251653 -1.60934772 -4.28545036 -1.07136259 0 0 Z " fill="#E6F0E8" transform="translate(68,70)"/>
<path d="M0 0 C0.04254356 1.99954746 0.04080783 4.00041636 0 6 C-1 7 -1 7 -4.16015625 7.09765625 C-6.09181641 7.08025391 -6.09181641 7.08025391 -8.0625 7.0625 C-9.35285156 7.05347656 -10.64320312 7.04445313 -11.97265625 7.03515625 C-12.97167969 7.02355469 -13.97070312 7.01195313 -15 7 C-15 6.34 -15 5.68 -15 5 C-13.44424022 4.15415002 -11.8800388 3.32381601 -10.3125 2.5 C-9.44238281 2.0359375 -8.57226562 1.571875 -7.67578125 1.09375 C-4.88211171 -0.04818792 -2.98370887 -0.21504208 0 0 Z " fill="#C7AF3F" transform="translate(105,65)"/>
<path d="M0 0 C4.62 0 9.24 0 14 0 C15.04449911 3.13349732 14.93423645 3.98968256 14 7 C8.65155992 6.46515599 4.64203897 4.53309233 0 2 C0 1.34 0 0.68 0 0 Z " fill="#CEB144" transform="translate(90,73)"/>
<path d="M0 0 C0 2.97 0 5.94 0 9 C-1.32 9.33 -2.64 9.66 -4 10 C-4.33 11.65 -4.66 13.3 -5 15 C-5.33 15 -5.66 15 -6 15 C-6 10.05 -6 5.1 -6 0 C-4 -1 -4 -1 0 0 Z " fill="#369941" transform="translate(51,71)"/>
<path d="M0 0 C0.66 1.98 1.32 3.96 2 6 C-1.96 7.98 -5.92 9.96 -10 12 C-10 8.07290865 -8.72099538 7.1810287 -6.125 4.3125 C-5.04605469 3.10013672 -5.04605469 3.10013672 -3.9453125 1.86328125 C-2 0 -2 0 0 0 Z " fill="#D5B041" transform="translate(100,57)"/>
<path d="M0 0 C4.8274799 1.41292095 8.7162359 3.42974154 13 6 C12.25 7.9375 12.25 7.9375 11 10 C8.921875 10.62890625 8.921875 10.62890625 7 11 C5.82750647 9.54634731 4.66216184 8.08692581 3.5 6.625 C2.52546875 5.40683594 2.52546875 5.40683594 1.53125 4.1640625 C0 2 0 2 0 0 Z " fill="#D6B13F" transform="translate(89,76)"/>
<path d="M0 0 C1.98 0.66 3.96 1.32 6 2 C5.39665691 5.70503641 3.77525763 7.85968148 1.4375 10.75 C0.47650391 11.94882812 0.47650391 11.94882812 -0.50390625 13.171875 C-0.99761719 13.77515625 -1.49132812 14.3784375 -2 15 C-3.23922223 11.28233332 -2.57018942 9.56110463 -1.5625 5.8125 C-1.13130859 4.18248047 -1.13130859 4.18248047 -0.69140625 2.51953125 C-0.46324219 1.68808594 -0.23507813 0.85664062 0 0 Z " fill="#D6B141" transform="translate(90,52)"/>
<path d="M0 0 C1.98 0 3.96 0 6 0 C6.21755666 5.4389165 6.10428384 9.87080814 4 15 C0.59141414 11.59141414 0.06991606 6.67798535 -0.125 2 C-0.08375 1.34 -0.0425 0.68 0 0 Z " fill="#D5B140" transform="translate(81,51)"/>
<path d="M0 0 C1.98 0 3.96 0 6 0 C6 6.93 6 13.86 6 21 C5.67 21 5.34 21 5 21 C4.67 18.03 4.34 15.06 4 12 C3.01 12.495 3.01 12.495 2 13 C2.02320313 12.31292969 2.04640625 11.62585937 2.0703125 10.91796875 C2.08835938 10.01691406 2.10640625 9.11585937 2.125 8.1875 C2.14820313 7.29417969 2.17140625 6.40085937 2.1953125 5.48046875 C2.18285827 2.74597286 2.18285827 2.74597286 0 0 Z " fill="#62AF6B" transform="translate(34,42)"/>
<path d="M0 0 C7.26 0 14.52 0 22 0 C22 0.33 22 0.66 22 1 C16.39 1 10.78 1 5 1 C5 2.65 5 4.3 5 6 C3.35 6 1.7 6 0 6 C0 4.02 0 2.04 0 0 Z " fill="#E9F2EA" transform="translate(59,41)"/>
<path d="M0 0 C0.33 0 0.66 0 1 0 C1 6.93 1 13.86 1 21 C4.3 21 7.6 21 11 21 C11 21.33 11 21.66 11 22 C7.7 22 4.4 22 1 22 C1.62841973 25.9714169 1.62841973 25.9714169 4 28 C3.01 28.33 2.02 28.66 1 29 C0 28 0 28 -0.11352539 25.31616211 C-0.10828857 24.14835205 -0.10305176 22.98054199 -0.09765625 21.77734375 C-0.09443359 20.51728516 -0.09121094 19.25722656 -0.08789062 17.95898438 C-0.07953403 16.61848891 -0.07106907 15.27799412 -0.0625 13.9375 C-0.0574866 12.59310058 -0.05292342 11.2486994 -0.04882812 9.90429688 C-0.03699488 6.60282059 -0.02050971 3.30143197 0 0 Z " fill="#92C297" transform="translate(45,42)"/>
<path d="M0 0 C1.65 0 3.3 0 5 0 C5.80967438 2.91482778 6.21845993 4.46113217 5.0625 7.3125 C4.5365625 8.1478125 4.5365625 8.1478125 4 9 C2.68 8.34 1.36 7.68 0 7 C0 4.69 0 2.38 0 0 Z " fill="#E2EEE3" transform="translate(61,55)"/>
<path d="M0 0 C4.51720311 -0.36625971 4.51720311 -0.36625971 6.8125 1.375 C8 3 8 3 8 5 C4.38475753 6.20508082 2.5928108 5.95808288 -1 5 C-0.67 3.35 -0.34 1.7 0 0 Z " fill="#2E973A" transform="translate(42,88)"/>
<path d="M0 0 C2.125 0.375 2.125 0.375 4 1 C4 2.32 4 3.64 4 5 C3.01 5 2.02 5 1 5 C1 5.99 1 6.98 1 8 C1.66 8.33 2.32 8.66 3 9 C-0.875 8.125 -0.875 8.125 -2 7 C-2.1875 4.5625 -2.1875 4.5625 -2 2 C-1.34 1.34 -0.68 0.68 0 0 Z " fill="#DFECE0" transform="translate(25,49)"/>
<path d="M0 0 C4.83256305 0.41421969 6.82679218 2.46413986 10 6 C9.67 6.66 9.34 7.32 9 8 C7.67968405 7.43457996 6.3688699 6.84693528 5.0625 6.25 C3.96615234 5.76273438 3.96615234 5.76273438 2.84765625 5.265625 C1 4 1 4 0.24609375 1.859375 C0.16488281 1.24578125 0.08367188 0.6321875 0 0 Z " fill="#E2EFE3" transform="translate(32,32)"/>
<path d="M0 0 C2.31 0 4.62 0 7 0 C7 1.98 7 3.96 7 6 C4.3333581 7.33332095 2.83319697 6.67102033 0 6 C0 5.67 0 5.34 0 5 C1.98 5 3.96 5 6 5 C6 4.01 6 3.02 6 2 C4.35 2.33 2.7 2.66 1 3 C0.67 2.01 0.34 1.02 0 0 Z " fill="#9DCBA3" transform="translate(65,63)"/>
<path d="M0 0 C0.33 0 0.66 0 1 0 C1.05395478 1.62463842 1.09277195 3.24978541 1.125 4.875 C1.14820313 5.77992187 1.17140625 6.68484375 1.1953125 7.6171875 C1 10 1 10 -1 12 C-1.99 12 -2.98 12 -4 12 C-4 11.01 -4 10.02 -4 9 C-3.01 9 -2.02 9 -1 9 C-0.67 6.03 -0.34 3.06 0 0 Z " fill="#399B44" transform="translate(30,45)"/>
<path d="M0 0 C2.18725657 4.37451315 2.09858399 5.20660805 1.125 9.75 C0.92132813 10.73484375 0.71765625 11.7196875 0.5078125 12.734375 C0.34023437 13.48203125 0.17265625 14.2296875 0 15 C-0.66 14.67 -1.32 14.34 -2 14 C-1.34 9.38 -0.68 4.76 0 0 Z " fill="#509632" transform="translate(87,52)"/>
<path d="M0 0 C2.475 0.495 2.475 0.495 5 1 C4.67 2.32 4.34 3.64 4 5 C2.68 5 1.36 5 0 5 C0 3.35 0 1.7 0 0 Z " fill="#E0EEE2" transform="translate(43,32)"/>
<path d="M0 0 C1.65 0 3.3 0 5 0 C5 3.3 5 6.6 5 10 C4.67 10 4.34 10 4 10 C3.566875 8.3603125 3.566875 8.3603125 3.125 6.6875 C2.18106796 2.95986155 2.18106796 2.95986155 0 0 Z " fill="#22912F" transform="translate(34,42)"/>
<path d="M0 0 C0.99 0.33 1.98 0.66 3 1 C1.02 3.31 -0.96 5.62 -3 8 C-3.99 7.67 -4.98 7.34 -6 7 C-4.02 4.69 -2.04 2.38 0 0 Z " fill="#509732" transform="translate(95,57)"/>
</svg>
